<?xml version="1.0" encoding="iso-8859-1"?>
<!-- Generator: Adobe Illustrator 17.0.0, SVG Export Plug-In . SVG Version: 6.00 Build 0)  -->
<!DOCTYPE svg PUBLIC "-//W3C//DTD SVG 1.1//EN" "http://www.w3.org/Graphics/SVG/1.1/DTD/svg11.dtd" [
	<!ENTITY ns_flows "http://ns.adobe.com/Flows/1.0/">
	<!ENTITY ns_extend "http://ns.adobe.com/Extensibility/1.0/">
	<!ENTITY ns_ai "http://ns.adobe.com/AdobeIllustrator/10.0/">
	<!ENTITY ns_graphs "http://ns.adobe.com/Graphs/1.0/">
]>
<svg version="1.1" id="Layer_1" xmlns:x="&ns_extend;" xmlns:i="&ns_ai;" xmlns:graph="&ns_graphs;"
	 xmlns="http://www.w3.org/2000/svg" xmlns:xlink="http://www.w3.org/1999/xlink" xmlns:a="http://ns.adobe.com/AdobeSVGViewerExtensions/3.0/"
	 x="0px" y="0px" width="238.107px" height="33.697px" viewBox="-120.009 29.578 238.107 33.697"
	 enable-background="new -120.009 29.578 238.107 33.697" xml:space="preserve">
<g enable-background="new    ">
	<path fill="#2A507A" d="M-117.746,43.742h6.325c0-2.852-1.055-7.193-4.682-7.193c-0.775,0-1.612,0.187-2.263,0.496l-0.62-1.953
		c0.744-0.341,1.736-0.682,2.977-0.682c5.829,0,7.038,5.953,7.038,10.572c0,5.303-2.17,10.76-7.441,10.76
		c-1.302,0-2.418-0.373-3.069-0.713l0.558-1.953c0.589,0.279,1.303,0.527,2.388,0.527c3.969,0,5.023-4.713,5.085-7.721h-6.294
		V43.742z"/>
	<path fill="#2A507A" d="M-96.664,34.627v20.898h-2.388v-18.82h-4.403v7.131c0,5.426-0.186,9.611-2.542,11.256
		c-0.527,0.402-1.178,0.65-1.922,0.65l-0.465-2.016c0.403-0.094,0.807-0.248,1.116-0.527c1.271-1.115,1.612-3.875,1.612-9.021
		v-9.551H-96.664z"/>
	<path fill="#2A507A" d="M-85.288,45.604h-5.24v7.844h5.953v2.078h-8.34V34.627h7.968v2.078h-5.581v6.883h5.24V45.604z"/>
	<path fill="#2A507A" d="M-79.585,34.627v9.488h0.434l4.465-9.488h2.573l-5.116,9.799c2.574,0.557,3.411,2.758,3.938,5.301
		c0.434,1.953,0.744,4,1.395,5.799h-2.418c-0.496-1.365-0.837-3.441-1.209-5.209c-0.496-2.512-1.209-4.434-3.69-4.434h-0.372v9.643
		h-2.356V34.627H-79.585z"/>
	<path fill="#2A507A" d="M-67,36.766h-3.813v-2.139h10.015v2.139h-3.813v18.76H-67V36.766z"/>
	<path fill="#2A507A" d="M-58.475,34.938c0.961-0.248,2.108-0.404,3.473-0.404c1.922,0,3.535,0.466,4.62,1.551
		c1.023,0.992,1.55,2.512,1.55,4.311c0,1.922-0.465,3.225-1.271,4.279c-1.147,1.549-3.07,2.324-4.93,2.324
		c-0.403,0-0.713,0-1.054-0.031v8.559h-2.388V34.938z M-56.087,44.951c0.279,0.062,0.527,0.094,0.93,0.094
		c2.356,0,3.938-1.551,3.938-4.496c0-2.139-0.899-4.062-3.535-4.062c-0.558,0-1.023,0.062-1.333,0.155V44.951z"/>
	<path fill="#2A507A" d="M-35.13,44.922c0,7.844-2.697,10.852-6.046,10.852c-3.473,0-5.798-3.689-5.798-10.729
		c0-6.914,2.48-10.666,6.139-10.666C-37.27,34.379-35.13,38.254-35.13,44.922z M-44.494,45.076c0,4.311,0.837,8.588,3.473,8.588
		c2.698,0,3.411-4.557,3.411-8.65c0-3.906-0.713-8.526-3.441-8.526C-43.657,36.487-44.494,40.828-44.494,45.076z"/>
	<path fill="#2A507A" d="M-29.893,34.627v8.961h5.86v-8.961h2.387v20.898h-2.387v-9.768h-5.86v9.768h-2.388V34.627H-29.893z"/>
	<path fill="#2A507A" d="M-15.541,34.627v8.961h5.86v-8.961h2.388v20.898H-9.68v-9.768h-5.86v9.768h-2.387V34.627H-15.541z"/>
	<path fill="#2A507A" d="M-1.187,34.627v8.34c0.496-0.092,1.054-0.123,1.519-0.123c3.721,0,6.202,2.418,6.202,6.17
		c0,1.891-0.559,3.35-1.488,4.465c-1.21,1.395-3.132,2.17-5.612,2.17c-1.427,0-2.356-0.092-3.008-0.217V34.627H-1.187z
		 M-1.187,53.604c0.403,0.092,0.744,0.092,1.116,0.092c2.635,0,4.124-1.922,4.124-4.527c0-2.572-1.612-4.34-4.093-4.34
		c-0.403,0-0.806,0.031-1.147,0.094V53.604z M10.843,34.627v20.898H8.456V34.627H10.843z"/>
	<path fill="#2A507A" d="M16.762,34.627V42.1c0,3.627-0.094,6.295-0.279,9.58h0.062c0.714-2.264,1.829-5.021,2.698-7.285
		l3.751-9.768h2.232v20.898h-2.14v-7.225c0-4.465,0.062-7.07,0.248-9.859h-0.062c-0.744,2.604-1.705,4.898-2.512,7.006
		l-3.906,10.078h-2.264V34.627H16.762z M18.157,30.875c0.155,0.869,0.527,1.705,1.768,1.705c1.147,0,1.612-0.806,1.736-1.705h1.768
		c-0.279,2.047-1.427,3.008-3.535,3.008c-1.984,0-3.286-0.961-3.473-3.008H18.157z"/>
	<path fill="#2A507A" d="M46.492,46.533c-0.155-2.76-0.31-5.828-0.217-8.186h-0.124c-0.465,2.326-1.023,4.807-1.675,7.256
		L41.903,55.4h-1.52l-2.449-9.395c-0.682-2.666-1.303-5.24-1.705-7.658h-0.094c0,2.449-0.123,5.363-0.248,8.34l-0.402,8.838h-2.14
		l1.24-20.898h2.573l2.449,9.551c0.714,2.758,1.24,4.805,1.675,7.193h0.093c0.403-2.389,0.868-4.373,1.551-7.193l2.356-9.551h2.666
		l1.21,20.898h-2.232L46.492,46.533z"/>
	<path fill="#2A507A" d="M54.581,34.627V42.1c0,3.627-0.093,6.295-0.278,9.58h0.062c0.713-2.264,1.83-5.021,2.697-7.285l3.752-9.768
		h2.232v20.898h-2.139v-7.225c0-4.465,0.062-7.07,0.248-9.859h-0.062c-0.744,2.604-1.705,4.898-2.512,7.006l-3.906,10.078h-2.264
		V34.627H54.581z"/>
	<path fill="#2A507A" d="M69.182,34.627v8.961h5.859v-8.961h2.388v20.898h-2.388v-9.768h-5.859v9.768h-2.388V34.627H69.182z"/>
	<path fill="#2A507A" d="M90.014,34.627v2.078h-6.479v6.262c0.526-0.092,1.054-0.123,1.581-0.123c1.829,0,3.38,0.59,4.465,1.643
		c1.116,1.055,1.768,2.605,1.768,4.559c0,1.891-0.527,3.41-1.488,4.496c-1.209,1.395-3.101,2.107-5.581,2.107
		c-1.551,0-2.48-0.092-3.132-0.217V34.627H90.014z M83.535,53.604c0.403,0.092,0.774,0.092,1.209,0.092
		c1.427,0,2.512-0.527,3.193-1.426c0.62-0.807,0.962-1.861,0.962-3.102s-0.403-2.293-1.117-3.068
		c-0.713-0.775-1.767-1.271-3.069-1.271c-0.372,0-0.774,0.031-1.178,0.094V53.604z"/>
	<path fill="#2A507A" d="M96.617,49.262l-1.396,6.264h-2.295l4.775-20.898h2.636l4.65,20.898h-2.356l-1.395-6.264H96.617z
		 M100.926,47.34l-1.085-5.303c-0.311-1.488-0.589-3.225-0.837-4.775h-0.125c-0.248,1.582-0.558,3.381-0.837,4.775l-1.085,5.303
		H100.926z"/>
	<path fill="#2A507A" d="M107.59,34.938c0.961-0.248,2.108-0.404,3.473-0.404c1.922,0,3.535,0.466,4.62,1.551
		c1.022,0.992,1.55,2.512,1.55,4.311c0,1.922-0.465,3.225-1.271,4.279c-1.146,1.549-3.069,2.324-4.93,2.324
		c-0.402,0-0.713,0-1.054-0.031v8.559h-2.388V34.938z M109.978,44.951c0.278,0.062,0.526,0.094,0.93,0.094
		c2.356,0,3.938-1.551,3.938-4.496c0-2.139-0.899-4.062-3.535-4.062c-0.559,0-1.023,0.062-1.333,0.155V44.951z"/>
</g>
</svg>
